Coordinates
version=1
nRows=14
nColumns=24
inDegrees=yes

Units are S.I. units (second, meters, Newtons, ...)
Angles are in degrees.

endheader
time	pelvis_tilt	pelvis_list	pelvis_rotation	pelvis_tx	pelvis_ty	pelvis_tz	hip_flexion_r	hip_adduction_r	hip_rotation_r	knee_angle_r	ankle_angle_r	subtalar_angle_r	mtp_angle_r	hip_flexion_l	hip_adduction_l	hip_rotation_l	knee_angle_l	ankle_angle_l	subtalar_angle_l	mtp_angle_l	lumbar_extension	lumbar_bending	lumbar_rotation
      3.30000000	    -24.17534810	      7.43531270	    360.55840506	      0.55575357	      1.35685387	     -1.05317914	     21.94158375	     -5.18951760	      4.75979895	    -36.36421548	      1.45865876	     -6.03042336	     21.21070948	     38.73946105	      9.47869619	     -1.81526704	     -6.48345152	    -11.71749952	     -8.23365257	     30.47807210	     28.63988101	     -2.73908457	   -209.30542525
      3.30500000	    -24.04931175	      7.50792325	    360.67572372	      0.56075223	      1.35732001	     -1.05407937	     22.51486339	     -5.41286261	      4.53408504	    -37.95961875	      0.39602305	     -5.77001310	     22.62220267	     38.50685751	      9.70142231	     -1.57239524	     -6.88520962	    -11.50248519	     -8.42773958	     29.88606293	     28.52790623	     -2.92206434	   -209.46342144
      3.31000000	    -23.89107217	      7.57721049	    360.80361020	      0.56577695	      1.35781208	     -1.05499909	     23.04946224	     -5.64362052	      4.30886249	    -39.51183423	     -0.62989724	     -5.51476218	     23.97839399	     38.20299096	      9.93337148	     -1.34316845	     -7.22124434	    -11.27545481	     -8.58795079	     29.32061152	     28.39117097	     -3.10426376	   -209.63104364
      3.31500000	    -23.69035940	      7.65082053	    360.94002636	      0.57084215	      1.35836882	     -1.05591725	     23.52572213	     -5.88787713	      4.08585257	    -41.00213431	     -1.58528775	     -5.25605751	     25.26202285	     37.80903159	     10.17783799	     -1.13883410	     -7.47808526	    -11.04360166	     -8.68654811	     28.80212519	     28.21574287	     -3.29884559	   -209.81141639
      3.32000000	    -23.50057558	      7.70372739	    361.06741095	      0.57587057	      1.35890911	     -1.05684134	     24.01396272	     -6.10660673	      3.89463941	    -42.44118217	     -2.43587070	     -4.94915078	     26.43978760	     37.40362010	     10.39875846	     -0.94544144	     -7.68778653	    -10.80307032	     -8.78884088	     28.32728395	     28.06016653	     -3.45818525	   -210.00202002
      3.32500000	    -23.28887516	      7.74477611	    361.19475455	      0.58088965	      1.35948644	     -1.05778085	     24.46681485	     -6.31617728	      3.71141205	    -43.81241931	     -3.15273073	     -4.62755923	     27.49382353	     36.94131712	     10.61114100	     -0.77501888	     -7.83358585	    -10.56197168	     -8.85376108	     27.89495717	     27.87570425	     -3.59349604	   -210.19661207
      3.33000000	    -23.07102751	      7.78312536	    361.30860485	      0.58588792	      1.36008315	     -1.05867316	     24.90429906	     -6.51038686	      3.56595294	    -45.11415412	     -3.72215763	     -4.29143547	     28.42852521	     36.44183956	     10.80886635	     -0.62043807	     -7.91898197	    -10.31982782	     -8.88748700	     27.50552459	     27.69182288	     -3.72506863	   -210.39414909
      3.33500000	    -22.85527587	      7.80317144	    361.42316472	      0.59086093	      1.36069584	     -1.05959769	     25.33046441	     -6.69305738	      3.41101936	    -46.34635854	     -4.07927937	     -3.84500465	     29.12304962	     35.92462722	     10.99010667	     -0.47545789	     -7.96266315	    -10.09671585	     -8.90942852	     27.23895225	     27.51383927	     -3.81678144	   -210.56375410
      3.34000000	    -22.65940526	      7.81733340	    361.50199122	      0.59578573	      1.36131034	     -1.06042774	     25.77727506	     -6.83524747	      3.32766987	    -47.50176680	     -4.34903844	     -3.51550485	     29.84812719	     35.40696403	     11.13777927	     -0.35969393	     -7.96044053	     -9.86104061	     -8.91383444	     26.90671767	     27.36388692	     -3.89261762	   -210.73053888
      3.34500000	    -22.44792639	      7.81646153	    361.55837638	      0.60062039	      1.36196191	     -1.06120739	     26.20363832	     -6.94226947	      3.27100901	    -48.58122941	     -4.50177461	     -3.27719163	     30.50761879	     34.86698152	     11.25525355	     -0.27469772	     -7.93893629	     -9.62923826	     -8.89163122	     26.54890483	     27.17930980	     -3.94224502	   -210.90158745
      3.35000000	    -22.26779857	      7.80373327	    361.60115936	      0.60541219	      1.36259349	     -1.06198649	     26.65860094	     -7.03091525	      3.22984455	    -49.59693334	     -4.44538930	     -2.89730815	     30.88701974	     34.35051708	     11.35030939	     -0.17908568	     -7.88734636	     -9.42533426	     -8.89128751	     26.37459802	     27.03633658	     -3.95223514	   -211.02402827
      3.35500000	    -22.11085867	      7.77536850	    361.61311840	      0.61012957	      1.36323793	     -1.06269338	     27.13655232	     -7.07284347	      3.23321099	    -50.52838678	     -4.31677167	     -2.66110228	     31.33270319	     33.86044618	     11.40868234	     -0.09820108	     -7.83598124	     -9.19571759	     -8.87016990	     26.01537335	     26.91468056	     -3.93122065	   -211.14717018
      3.36000000	    -21.96020758	      7.74251388	    361.60879735	      0.61480346	      1.36388792	     -1.06336550	     27.61489686	     -7.09759442	      3.25303694	    -51.38891129	     -4.04499836	     -2.37159136	     31.57826077	     33.37157559	     11.44950625	     -0.01463530	     -7.76394683	     -8.99474015	     -8.87722863	     25.84902768	     26.80310377	     -3.89172238	   -211.22495897
      3.36500000	    -21.83689900	      7.70641432	    361.57295752	      0.61939210	      1.36452736	     -1.06396078	     28.12857307	     -7.08876216	      3.31687563	    -52.18287487	     -3.69542833	     -2.15808793	     31.76862886	     32.92003659	     11.46375056	      0.04533673	     -7.69378513	     -8.82062670	     -8.89771806	     25.67468841	     26.71326982	     -3.83660828	   -211.31421823
